<?xml version="1.0" encoding="UTF-8" standalone="no"?>
<svg xmlns="http://www.w3.org/2000/svg" id="Layer_1" viewbox="-50,-50,720,220" width="640.20001" height="144">
  <title>SignPath GmbH</title>
  <rect width="100%" height="100%" fill="black"/>
  <g id="g3684" transform="translate(-18.1 -12.8)">
    <path id="path3682" fill="#22ccff" d="M133.4 22.8H62.6L27.1 84.2l35.4 61.4h70.9l35.4-61.4zm1.7 68.6c-.7 1.6-2.3 2.6-4.1 2.6H94.2c-2.5 0-4.5-2-4.5-4.5s2-4.5 4.5-4.5H121l-10.5-11.9a4.43 4.43 0 0 1 0-5.9L121 55.3H76.7v71.2c0 2.5-2 4.5-4.5 4.5s-4.5-2-4.5-4.5V41.7c0-2.5 2-4.5 4.5-4.5s4.5 2 4.5 4.5v4.6H131c1.8 0 3.4 1 4.1 2.6.7 1.6.4 3.5-.7 4.8L120 70.1l14.4 16.4c1.1 1.4 1.4 3.3.7 4.9z"/>
  </g>
  <g id="Inhalt" transform="translate(-22.1 -12.8)">
    <g id="g3705">
      <g id="g3703">
        <path id="path3687" fill="#fff" d="M208.4 104c7.3 5.8 16 9.2 25.3 9.2 9.1 0 15.5-3.2 15.5-10.4 0-6.2-4-8.7-11.2-11.4l-11.6-4.2c-10.6-3.9-18.7-9.6-18.7-22.7 0-14 12.2-21.7 26.9-21.7 9 0 17.1 2.3 23.5 6.5v13.9c-6.6-5.1-13.9-8.6-23.2-8.6-8.1 0-14 3.1-14 9.6 0 5.8 3.8 8.2 10.4 10.5l12.9 4.7c12.5 4.5 18.2 11.6 18.2 23.1 0 14.5-12.3 22.6-28.6 22.6-10.6 0-19.7-3.1-25.3-7z"/>
        <path id="path3689" fill="#fff" d="M280.5 56.7c-4.3 0-8.1-3.5-8.1-7.9s3.8-7.9 8.1-7.9 8.1 3.5 8.1 7.9-3.8 7.9-8.1 7.9zm6.5 67.2h-13V66.2h13z"/>
        <path id="path3691" fill="#fff" d="M339.1 118.2c-2.6 3.1-8.1 6-14.5 6-17 0-26.6-14.2-26.6-29.6 0-15.4 9.6-29.6 26.6-29.6 6.5 0 11.9 2.9 14.5 6v-4.7h13v52.9c0 21-16 28.2-29.6 28.2-7.7 0-14.5-1.9-19.2-4.9v-13.8c6 5.3 11.9 7.3 19.2 7.3 9.2 0 16.6-5.5 16.6-15.8zm0-35c-2.2-3.9-6.9-6.9-12.3-6.9-10 0-15.7 7.7-15.7 18.2s5.7 18.2 15.7 18.2c5.5 0 10.1-3 12.3-6.9z"/>
        <path id="path3693" fill="#fff" d="M367 66.2h13v5.5c3.1-3.6 8.8-6.8 15.6-6.8 13.1 0 20.4 8.7 20.4 21.4v37.5h-13V88.6c0-7.1-3.5-11.8-10.9-11.8-5.6 0-10.6 3.5-12.1 9.2v37.9h-13z"/>
        <path id="path3695" fill="#fff" d="M445 94.1v29.7h-13.5V44.1h30.8c16.5 0 27.3 8.6 27.3 25.1 0 16.2-10.8 24.9-27.3 24.9zm17.1-38.3h-17v26.6h17c9.4 0 14.2-5.6 14.2-13.2-.1-7.9-4.9-13.4-14.2-13.4z"/>
        <path id="path3697" fill="#fff" d="M530.1 87c0-6.5-5.2-10.3-13.2-10.3-6.2 0-11.3 1.9-16 5.1V69.9c3.8-2.7 11-4.9 18.3-4.9 14.9 0 23.4 8.1 23.4 21.2V124h-12.5v-3.2c-1.9 1.9-7.7 4.3-14.2 4.3-11.8 0-21.6-7-21.6-18.8 0-10.9 9.7-18.6 22.5-18.6 5.2 0 10.9 1.8 13.2 3.5zm0 16.8c-1.4-3.6-6.5-5.8-11.7-5.8-5.8 0-11.9 2.5-11.9 8.2 0 5.8 6.1 8.3 11.9 8.3 5.2 0 10.3-2.2 11.7-5.8z"/>
        <path id="path3699" fill="#fff" d="M575.8 123.9h-13V77h-11.7V66.2h11.7V50.8h13v15.5h13V77h-13z"/>
        <path id="path3701" fill="#fff" d="M598.3 39.5h13v32.2c3.1-3.6 8.8-6.8 15.6-6.8 13.1 0 20.4 8.7 20.4 21.4v37.5h-13V88.6c0-7.1-3.5-11.8-10.9-11.8-5.6 0-10.7 3.5-12.1 9.2v37.9h-13z"/>
      </g>
    </g>
  </g>
</svg>